<?xml version="1.0" encoding="UTF-8"?>
<svg xmlns="http://www.w3.org/2000/svg" xmlns:xlink="http://www.w3.org/1999/xlink" width="504pt" height="504pt" viewBox="0 0 504 504" version="1.1">
<g id="surface3413">
<rect x="0" y="0" width="504" height="504" style="fill:rgb(100%,100%,100%);fill-opacity:1;stroke:none;"/>
<path style=" stroke:none;fill-rule:nonzero;fill:rgb(82.745098%,82.745098%,82.745098%);fill-opacity:1;" d="M 21 63 L 63 63 L 63 21 L 21 21 Z M 21 63 "/>
<path style=" stroke:none;fill-rule:nonzero;fill:rgb(82.745098%,82.745098%,82.745098%);fill-opacity:1;" d="M 21 109.667969 L 63 109.667969 L 63 67.667969 L 21 67.667969 Z M 21 109.667969 "/>
<path style=" stroke:none;fill-rule:nonzero;fill:rgb(82.745098%,82.745098%,82.745098%);fill-opacity:1;" d="M 21 156.332031 L 63 156.332031 L 63 114.332031 L 21 114.332031 Z M 21 156.332031 "/>
<path style=" stroke:none;fill-rule:nonzero;fill:rgb(82.745098%,82.745098%,82.745098%);fill-opacity:1;" d="M 21 203 L 63 203 L 63 161 L 21 161 Z M 21 203 "/>
<path style=" stroke:none;fill-rule:nonzero;fill:rgb(82.745098%,82.745098%,82.745098%);fill-opacity:1;" d="M 21 249.667969 L 63 249.667969 L 63 207.667969 L 21 207.667969 Z M 21 249.667969 "/>
<path style=" stroke:none;fill-rule:nonzero;fill:rgb(82.745098%,82.745098%,82.745098%);fill-opacity:1;" d="M 21 296.332031 L 63 296.332031 L 63 254.332031 L 21 254.332031 Z M 21 296.332031 "/>
<path style=" stroke:none;fill-rule:nonzero;fill:rgb(82.745098%,82.745098%,82.745098%);fill-opacity:1;" d="M 21 343 L 63 343 L 63 301 L 21 301 Z M 21 343 "/>
<path style=" stroke:none;fill-rule:nonzero;fill:rgb(60%,19.607843%,80%);fill-opacity:1;" d="M 21 389.667969 L 63 389.667969 L 63 347.667969 L 21 347.667969 Z M 21 389.667969 "/>
<path style=" stroke:none;fill-rule:nonzero;fill:rgb(60%,19.607843%,80%);fill-opacity:1;" d="M 21 436.332031 L 63 436.332031 L 63 394.332031 L 21 394.332031 Z M 21 436.332031 "/>
<path style=" stroke:none;fill-rule:nonzero;fill:rgb(60%,19.607843%,80%);fill-opacity:1;" d="M 21 483 L 63 483 L 63 441 L 21 441 Z M 21 483 "/>
<path style=" stroke:none;fill-rule:nonzero;fill:rgb(82.745098%,82.745098%,82.745098%);fill-opacity:1;" d="M 67.667969 63 L 109.667969 63 L 109.667969 21 L 67.667969 21 Z M 67.667969 63 "/>
<path style=" stroke:none;fill-rule:nonzero;fill:rgb(82.745098%,82.745098%,82.745098%);fill-opacity:1;" d="M 67.667969 109.667969 L 109.667969 109.667969 L 109.667969 67.667969 L 67.667969 67.667969 Z M 67.667969 109.667969 "/>
<path style=" stroke:none;fill-rule:nonzero;fill:rgb(82.745098%,82.745098%,82.745098%);fill-opacity:1;" d="M 67.667969 156.332031 L 109.667969 156.332031 L 109.667969 114.332031 L 67.667969 114.332031 Z M 67.667969 156.332031 "/>
<path style=" stroke:none;fill-rule:nonzero;fill:rgb(82.745098%,82.745098%,82.745098%);fill-opacity:1;" d="M 67.667969 203 L 109.667969 203 L 109.667969 161 L 67.667969 161 Z M 67.667969 203 "/>
<path style=" stroke:none;fill-rule:nonzero;fill:rgb(82.745098%,82.745098%,82.745098%);fill-opacity:1;" d="M 67.667969 249.667969 L 109.667969 249.667969 L 109.667969 207.667969 L 67.667969 207.667969 Z M 67.667969 249.667969 "/>
<path style=" stroke:none;fill-rule:nonzero;fill:rgb(82.745098%,82.745098%,82.745098%);fill-opacity:1;" d="M 67.667969 296.332031 L 109.667969 296.332031 L 109.667969 254.332031 L 67.667969 254.332031 Z M 67.667969 296.332031 "/>
<path style=" stroke:none;fill-rule:nonzero;fill:rgb(82.745098%,82.745098%,82.745098%);fill-opacity:1;" d="M 67.667969 343 L 109.667969 343 L 109.667969 301 L 67.667969 301 Z M 67.667969 343 "/>
<path style=" stroke:none;fill-rule:nonzero;fill:rgb(60%,19.607843%,80%);fill-opacity:1;" d="M 67.667969 389.667969 L 109.667969 389.667969 L 109.667969 347.667969 L 67.667969 347.667969 Z M 67.667969 389.667969 "/>
<path style=" stroke:none;fill-rule:nonzero;fill:rgb(60%,19.607843%,80%);fill-opacity:1;" d="M 67.667969 436.332031 L 109.667969 436.332031 L 109.667969 394.332031 L 67.667969 394.332031 Z M 67.667969 436.332031 "/>
<path style=" stroke:none;fill-rule:nonzero;fill:rgb(60%,19.607843%,80%);fill-opacity:1;" d="M 67.667969 483 L 109.667969 483 L 109.667969 441 L 67.667969 441 Z M 67.667969 483 "/>
<path style=" stroke:none;fill-rule:nonzero;fill:rgb(82.745098%,82.745098%,82.745098%);fill-opacity:1;" d="M 114.332031 63 L 156.332031 63 L 156.332031 21 L 114.332031 21 Z M 114.332031 63 "/>
<path style=" stroke:none;fill-rule:nonzero;fill:rgb(82.745098%,82.745098%,82.745098%);fill-opacity:1;" d="M 114.332031 109.667969 L 156.332031 109.667969 L 156.332031 67.667969 L 114.332031 67.667969 Z M 114.332031 109.667969 "/>
<path style=" stroke:none;fill-rule:nonzero;fill:rgb(82.745098%,82.745098%,82.745098%);fill-opacity:1;" d="M 114.332031 156.332031 L 156.332031 156.332031 L 156.332031 114.332031 L 114.332031 114.332031 Z M 114.332031 156.332031 "/>
<path style=" stroke:none;fill-rule:nonzero;fill:rgb(82.745098%,82.745098%,82.745098%);fill-opacity:1;" d="M 114.332031 203 L 156.332031 203 L 156.332031 161 L 114.332031 161 Z M 114.332031 203 "/>
<path style=" stroke:none;fill-rule:nonzero;fill:rgb(82.745098%,82.745098%,82.745098%);fill-opacity:1;" d="M 114.332031 249.667969 L 156.332031 249.667969 L 156.332031 207.667969 L 114.332031 207.667969 Z M 114.332031 249.667969 "/>
<path style=" stroke:none;fill-rule:nonzero;fill:rgb(82.745098%,82.745098%,82.745098%);fill-opacity:1;" d="M 114.332031 296.332031 L 156.332031 296.332031 L 156.332031 254.332031 L 114.332031 254.332031 Z M 114.332031 296.332031 "/>
<path style=" stroke:none;fill-rule:nonzero;fill:rgb(82.745098%,82.745098%,82.745098%);fill-opacity:1;" d="M 114.332031 343 L 156.332031 343 L 156.332031 301 L 114.332031 301 Z M 114.332031 343 "/>
<path style=" stroke:none;fill-rule:nonzero;fill:rgb(60%,19.607843%,80%);fill-opacity:1;" d="M 114.332031 389.667969 L 156.332031 389.667969 L 156.332031 347.667969 L 114.332031 347.667969 Z M 114.332031 389.667969 "/>
<path style=" stroke:none;fill-rule:nonzero;fill:rgb(60%,19.607843%,80%);fill-opacity:1;" d="M 114.332031 436.332031 L 156.332031 436.332031 L 156.332031 394.332031 L 114.332031 394.332031 Z M 114.332031 436.332031 "/>
<path style=" stroke:none;fill-rule:nonzero;fill:rgb(60%,19.607843%,80%);fill-opacity:1;" d="M 114.332031 483 L 156.332031 483 L 156.332031 441 L 114.332031 441 Z M 114.332031 483 "/>
<path style=" stroke:none;fill-rule:nonzero;fill:rgb(82.745098%,82.745098%,82.745098%);fill-opacity:1;" d="M 161 63 L 203 63 L 203 21 L 161 21 Z M 161 63 "/>
<path style=" stroke:none;fill-rule:nonzero;fill:rgb(82.745098%,82.745098%,82.745098%);fill-opacity:1;" d="M 161 109.667969 L 203 109.667969 L 203 67.667969 L 161 67.667969 Z M 161 109.667969 "/>
<path style=" stroke:none;fill-rule:nonzero;fill:rgb(82.745098%,82.745098%,82.745098%);fill-opacity:1;" d="M 161 156.332031 L 203 156.332031 L 203 114.332031 L 161 114.332031 Z M 161 156.332031 "/>
<path style=" stroke:none;fill-rule:nonzero;fill:rgb(82.745098%,82.745098%,82.745098%);fill-opacity:1;" d="M 161 203 L 203 203 L 203 161 L 161 161 Z M 161 203 "/>
<path style=" stroke:none;fill-rule:nonzero;fill:rgb(82.745098%,82.745098%,82.745098%);fill-opacity:1;" d="M 161 249.667969 L 203 249.667969 L 203 207.667969 L 161 207.667969 Z M 161 249.667969 "/>
<path style=" stroke:none;fill-rule:nonzero;fill:rgb(82.745098%,82.745098%,82.745098%);fill-opacity:1;" d="M 161 296.332031 L 203 296.332031 L 203 254.332031 L 161 254.332031 Z M 161 296.332031 "/>
<path style=" stroke:none;fill-rule:nonzero;fill:rgb(82.745098%,82.745098%,82.745098%);fill-opacity:1;" d="M 161 343 L 203 343 L 203 301 L 161 301 Z M 161 343 "/>
<path style=" stroke:none;fill-rule:nonzero;fill:rgb(60%,19.607843%,80%);fill-opacity:1;" d="M 161 389.667969 L 203 389.667969 L 203 347.667969 L 161 347.667969 Z M 161 389.667969 "/>
<path style=" stroke:none;fill-rule:nonzero;fill:rgb(60%,19.607843%,80%);fill-opacity:1;" d="M 161 436.332031 L 203 436.332031 L 203 394.332031 L 161 394.332031 Z M 161 436.332031 "/>
<path style=" stroke:none;fill-rule:nonzero;fill:rgb(60%,19.607843%,80%);fill-opacity:1;" d="M 161 483 L 203 483 L 203 441 L 161 441 Z M 161 483 "/>
<path style=" stroke:none;fill-rule:nonzero;fill:rgb(82.745098%,82.745098%,82.745098%);fill-opacity:1;" d="M 207.667969 63 L 249.667969 63 L 249.667969 21 L 207.667969 21 Z M 207.667969 63 "/>
<path style=" stroke:none;fill-rule:nonzero;fill:rgb(82.745098%,82.745098%,82.745098%);fill-opacity:1;" d="M 207.667969 109.667969 L 249.667969 109.667969 L 249.667969 67.667969 L 207.667969 67.667969 Z M 207.667969 109.667969 "/>
<path style=" stroke:none;fill-rule:nonzero;fill:rgb(82.745098%,82.745098%,82.745098%);fill-opacity:1;" d="M 207.667969 156.332031 L 249.667969 156.332031 L 249.667969 114.332031 L 207.667969 114.332031 Z M 207.667969 156.332031 "/>
<path style=" stroke:none;fill-rule:nonzero;fill:rgb(82.745098%,82.745098%,82.745098%);fill-opacity:1;" d="M 207.667969 203 L 249.667969 203 L 249.667969 161 L 207.667969 161 Z M 207.667969 203 "/>
<path style=" stroke:none;fill-rule:nonzero;fill:rgb(82.745098%,82.745098%,82.745098%);fill-opacity:1;" d="M 207.667969 249.667969 L 249.667969 249.667969 L 249.667969 207.667969 L 207.667969 207.667969 Z M 207.667969 249.667969 "/>
<path style=" stroke:none;fill-rule:nonzero;fill:rgb(82.745098%,82.745098%,82.745098%);fill-opacity:1;" d="M 207.667969 296.332031 L 249.667969 296.332031 L 249.667969 254.332031 L 207.667969 254.332031 Z M 207.667969 296.332031 "/>
<path style=" stroke:none;fill-rule:nonzero;fill:rgb(82.745098%,82.745098%,82.745098%);fill-opacity:1;" d="M 207.667969 343 L 249.667969 343 L 249.667969 301 L 207.667969 301 Z M 207.667969 343 "/>
<path style=" stroke:none;fill-rule:nonzero;fill:rgb(60%,19.607843%,80%);fill-opacity:1;" d="M 207.667969 389.667969 L 249.667969 389.667969 L 249.667969 347.667969 L 207.667969 347.667969 Z M 207.667969 389.667969 "/>
<path style=" stroke:none;fill-rule:nonzero;fill:rgb(60%,19.607843%,80%);fill-opacity:1;" d="M 207.667969 436.332031 L 249.667969 436.332031 L 249.667969 394.332031 L 207.667969 394.332031 Z M 207.667969 436.332031 "/>
<path style=" stroke:none;fill-rule:nonzero;fill:rgb(60%,19.607843%,80%);fill-opacity:1;" d="M 207.667969 483 L 249.667969 483 L 249.667969 441 L 207.667969 441 Z M 207.667969 483 "/>
<path style=" stroke:none;fill-rule:nonzero;fill:rgb(82.745098%,82.745098%,82.745098%);fill-opacity:1;" d="M 254.332031 63 L 296.332031 63 L 296.332031 21 L 254.332031 21 Z M 254.332031 63 "/>
<path style=" stroke:none;fill-rule:nonzero;fill:rgb(82.745098%,82.745098%,82.745098%);fill-opacity:1;" d="M 254.332031 109.667969 L 296.332031 109.667969 L 296.332031 67.667969 L 254.332031 67.667969 Z M 254.332031 109.667969 "/>
<path style=" stroke:none;fill-rule:nonzero;fill:rgb(82.745098%,82.745098%,82.745098%);fill-opacity:1;" d="M 254.332031 156.332031 L 296.332031 156.332031 L 296.332031 114.332031 L 254.332031 114.332031 Z M 254.332031 156.332031 "/>
<path style=" stroke:none;fill-rule:nonzero;fill:rgb(82.745098%,82.745098%,82.745098%);fill-opacity:1;" d="M 254.332031 203 L 296.332031 203 L 296.332031 161 L 254.332031 161 Z M 254.332031 203 "/>
<path style=" stroke:none;fill-rule:nonzero;fill:rgb(82.745098%,82.745098%,82.745098%);fill-opacity:1;" d="M 254.332031 249.667969 L 296.332031 249.667969 L 296.332031 207.667969 L 254.332031 207.667969 Z M 254.332031 249.667969 "/>
<path style=" stroke:none;fill-rule:nonzero;fill:rgb(82.745098%,82.745098%,82.745098%);fill-opacity:1;" d="M 254.332031 296.332031 L 296.332031 296.332031 L 296.332031 254.332031 L 254.332031 254.332031 Z M 254.332031 296.332031 "/>
<path style=" stroke:none;fill-rule:nonzero;fill:rgb(82.745098%,82.745098%,82.745098%);fill-opacity:1;" d="M 254.332031 343 L 296.332031 343 L 296.332031 301 L 254.332031 301 Z M 254.332031 343 "/>
<path style=" stroke:none;fill-rule:nonzero;fill:rgb(82.745098%,82.745098%,82.745098%);fill-opacity:1;" d="M 254.332031 389.667969 L 296.332031 389.667969 L 296.332031 347.667969 L 254.332031 347.667969 Z M 254.332031 389.667969 "/>
<path style=" stroke:none;fill-rule:nonzero;fill:rgb(60%,19.607843%,80%);fill-opacity:1;" d="M 254.332031 436.332031 L 296.332031 436.332031 L 296.332031 394.332031 L 254.332031 394.332031 Z M 254.332031 436.332031 "/>
<path style=" stroke:none;fill-rule:nonzero;fill:rgb(60%,19.607843%,80%);fill-opacity:1;" d="M 254.332031 483 L 296.332031 483 L 296.332031 441 L 254.332031 441 Z M 254.332031 483 "/>
<path style=" stroke:none;fill-rule:nonzero;fill:rgb(82.745098%,82.745098%,82.745098%);fill-opacity:1;" d="M 301 63 L 343 63 L 343 21 L 301 21 Z M 301 63 "/>
<path style=" stroke:none;fill-rule:nonzero;fill:rgb(82.745098%,82.745098%,82.745098%);fill-opacity:1;" d="M 301 109.667969 L 343 109.667969 L 343 67.667969 L 301 67.667969 Z M 301 109.667969 "/>
<path style=" stroke:none;fill-rule:nonzero;fill:rgb(82.745098%,82.745098%,82.745098%);fill-opacity:1;" d="M 301 156.332031 L 343 156.332031 L 343 114.332031 L 301 114.332031 Z M 301 156.332031 "/>
<path style=" stroke:none;fill-rule:nonzero;fill:rgb(82.745098%,82.745098%,82.745098%);fill-opacity:1;" d="M 301 203 L 343 203 L 343 161 L 301 161 Z M 301 203 "/>
<path style=" stroke:none;fill-rule:nonzero;fill:rgb(82.745098%,82.745098%,82.745098%);fill-opacity:1;" d="M 301 249.667969 L 343 249.667969 L 343 207.667969 L 301 207.667969 Z M 301 249.667969 "/>
<path style=" stroke:none;fill-rule:nonzero;fill:rgb(82.745098%,82.745098%,82.745098%);fill-opacity:1;" d="M 301 296.332031 L 343 296.332031 L 343 254.332031 L 301 254.332031 Z M 301 296.332031 "/>
<path style=" stroke:none;fill-rule:nonzero;fill:rgb(82.745098%,82.745098%,82.745098%);fill-opacity:1;" d="M 301 343 L 343 343 L 343 301 L 301 301 Z M 301 343 "/>
<path style=" stroke:none;fill-rule:nonzero;fill:rgb(82.745098%,82.745098%,82.745098%);fill-opacity:1;" d="M 301 389.667969 L 343 389.667969 L 343 347.667969 L 301 347.667969 Z M 301 389.667969 "/>
<path style=" stroke:none;fill-rule:nonzero;fill:rgb(60%,19.607843%,80%);fill-opacity:1;" d="M 301 436.332031 L 343 436.332031 L 343 394.332031 L 301 394.332031 Z M 301 436.332031 "/>
<path style=" stroke:none;fill-rule:nonzero;fill:rgb(60%,19.607843%,80%);fill-opacity:1;" d="M 301 483 L 343 483 L 343 441 L 301 441 Z M 301 483 "/>
<path style=" stroke:none;fill-rule:nonzero;fill:rgb(82.745098%,82.745098%,82.745098%);fill-opacity:1;" d="M 347.667969 63 L 389.667969 63 L 389.667969 21 L 347.667969 21 Z M 347.667969 63 "/>
<path style=" stroke:none;fill-rule:nonzero;fill:rgb(82.745098%,82.745098%,82.745098%);fill-opacity:1;" d="M 347.667969 109.667969 L 389.667969 109.667969 L 389.667969 67.667969 L 347.667969 67.667969 Z M 347.667969 109.667969 "/>
<path style=" stroke:none;fill-rule:nonzero;fill:rgb(82.745098%,82.745098%,82.745098%);fill-opacity:1;" d="M 347.667969 156.332031 L 389.667969 156.332031 L 389.667969 114.332031 L 347.667969 114.332031 Z M 347.667969 156.332031 "/>
<path style=" stroke:none;fill-rule:nonzero;fill:rgb(82.745098%,82.745098%,82.745098%);fill-opacity:1;" d="M 347.667969 203 L 389.667969 203 L 389.667969 161 L 347.667969 161 Z M 347.667969 203 "/>
<path style=" stroke:none;fill-rule:nonzero;fill:rgb(82.745098%,82.745098%,82.745098%);fill-opacity:1;" d="M 347.667969 249.667969 L 389.667969 249.667969 L 389.667969 207.667969 L 347.667969 207.667969 Z M 347.667969 249.667969 "/>
<path style=" stroke:none;fill-rule:nonzero;fill:rgb(82.745098%,82.745098%,82.745098%);fill-opacity:1;" d="M 347.667969 296.332031 L 389.667969 296.332031 L 389.667969 254.332031 L 347.667969 254.332031 Z M 347.667969 296.332031 "/>
<path style=" stroke:none;fill-rule:nonzero;fill:rgb(82.745098%,82.745098%,82.745098%);fill-opacity:1;" d="M 347.667969 343 L 389.667969 343 L 389.667969 301 L 347.667969 301 Z M 347.667969 343 "/>
<path style=" stroke:none;fill-rule:nonzero;fill:rgb(82.745098%,82.745098%,82.745098%);fill-opacity:1;" d="M 347.667969 389.667969 L 389.667969 389.667969 L 389.667969 347.667969 L 347.667969 347.667969 Z M 347.667969 389.667969 "/>
<path style=" stroke:none;fill-rule:nonzero;fill:rgb(60%,19.607843%,80%);fill-opacity:1;" d="M 347.667969 436.332031 L 389.667969 436.332031 L 389.667969 394.332031 L 347.667969 394.332031 Z M 347.667969 436.332031 "/>
<path style=" stroke:none;fill-rule:nonzero;fill:rgb(60%,19.607843%,80%);fill-opacity:1;" d="M 347.667969 483 L 389.667969 483 L 389.667969 441 L 347.667969 441 Z M 347.667969 483 "/>
<path style=" stroke:none;fill-rule:nonzero;fill:rgb(82.745098%,82.745098%,82.745098%);fill-opacity:1;" d="M 394.332031 63 L 436.332031 63 L 436.332031 21 L 394.332031 21 Z M 394.332031 63 "/>
<path style=" stroke:none;fill-rule:nonzero;fill:rgb(82.745098%,82.745098%,82.745098%);fill-opacity:1;" d="M 394.332031 109.667969 L 436.332031 109.667969 L 436.332031 67.667969 L 394.332031 67.667969 Z M 394.332031 109.667969 "/>
<path style=" stroke:none;fill-rule:nonzero;fill:rgb(82.745098%,82.745098%,82.745098%);fill-opacity:1;" d="M 394.332031 156.332031 L 436.332031 156.332031 L 436.332031 114.332031 L 394.332031 114.332031 Z M 394.332031 156.332031 "/>
<path style=" stroke:none;fill-rule:nonzero;fill:rgb(82.745098%,82.745098%,82.745098%);fill-opacity:1;" d="M 394.332031 203 L 436.332031 203 L 436.332031 161 L 394.332031 161 Z M 394.332031 203 "/>
<path style=" stroke:none;fill-rule:nonzero;fill:rgb(82.745098%,82.745098%,82.745098%);fill-opacity:1;" d="M 394.332031 249.667969 L 436.332031 249.667969 L 436.332031 207.667969 L 394.332031 207.667969 Z M 394.332031 249.667969 "/>
<path style=" stroke:none;fill-rule:nonzero;fill:rgb(82.745098%,82.745098%,82.745098%);fill-opacity:1;" d="M 394.332031 296.332031 L 436.332031 296.332031 L 436.332031 254.332031 L 394.332031 254.332031 Z M 394.332031 296.332031 "/>
<path style=" stroke:none;fill-rule:nonzero;fill:rgb(82.745098%,82.745098%,82.745098%);fill-opacity:1;" d="M 394.332031 343 L 436.332031 343 L 436.332031 301 L 394.332031 301 Z M 394.332031 343 "/>
<path style=" stroke:none;fill-rule:nonzero;fill:rgb(82.745098%,82.745098%,82.745098%);fill-opacity:1;" d="M 394.332031 389.667969 L 436.332031 389.667969 L 436.332031 347.667969 L 394.332031 347.667969 Z M 394.332031 389.667969 "/>
<path style=" stroke:none;fill-rule:nonzero;fill:rgb(60%,19.607843%,80%);fill-opacity:1;" d="M 394.332031 436.332031 L 436.332031 436.332031 L 436.332031 394.332031 L 394.332031 394.332031 Z M 394.332031 436.332031 "/>
<path style=" stroke:none;fill-rule:nonzero;fill:rgb(60%,19.607843%,80%);fill-opacity:1;" d="M 394.332031 483 L 436.332031 483 L 436.332031 441 L 394.332031 441 Z M 394.332031 483 "/>
<path style=" stroke:none;fill-rule:nonzero;fill:rgb(82.745098%,82.745098%,82.745098%);fill-opacity:1;" d="M 441 63 L 483 63 L 483 21 L 441 21 Z M 441 63 "/>
<path style=" stroke:none;fill-rule:nonzero;fill:rgb(82.745098%,82.745098%,82.745098%);fill-opacity:1;" d="M 441 109.667969 L 483 109.667969 L 483 67.667969 L 441 67.667969 Z M 441 109.667969 "/>
<path style=" stroke:none;fill-rule:nonzero;fill:rgb(82.745098%,82.745098%,82.745098%);fill-opacity:1;" d="M 441 156.332031 L 483 156.332031 L 483 114.332031 L 441 114.332031 Z M 441 156.332031 "/>
<path style=" stroke:none;fill-rule:nonzero;fill:rgb(82.745098%,82.745098%,82.745098%);fill-opacity:1;" d="M 441 203 L 483 203 L 483 161 L 441 161 Z M 441 203 "/>
<path style=" stroke:none;fill-rule:nonzero;fill:rgb(82.745098%,82.745098%,82.745098%);fill-opacity:1;" d="M 441 249.667969 L 483 249.667969 L 483 207.667969 L 441 207.667969 Z M 441 249.667969 "/>
<path style=" stroke:none;fill-rule:nonzero;fill:rgb(82.745098%,82.745098%,82.745098%);fill-opacity:1;" d="M 441 296.332031 L 483 296.332031 L 483 254.332031 L 441 254.332031 Z M 441 296.332031 "/>
<path style=" stroke:none;fill-rule:nonzero;fill:rgb(82.745098%,82.745098%,82.745098%);fill-opacity:1;" d="M 441 343 L 483 343 L 483 301 L 441 301 Z M 441 343 "/>
<path style=" stroke:none;fill-rule:nonzero;fill:rgb(82.745098%,82.745098%,82.745098%);fill-opacity:1;" d="M 441 389.667969 L 483 389.667969 L 483 347.667969 L 441 347.667969 Z M 441 389.667969 "/>
<path style=" stroke:none;fill-rule:nonzero;fill:rgb(60%,19.607843%,80%);fill-opacity:1;" d="M 441 436.332031 L 483 436.332031 L 483 394.332031 L 441 394.332031 Z M 441 436.332031 "/>
<path style=" stroke:none;fill-rule:nonzero;fill:rgb(60%,19.607843%,80%);fill-opacity:1;" d="M 441 483 L 483 483 L 483 441 L 441 441 Z M 441 483 "/>
</g>
</svg>
